<svg xmlns="http://www.w3.org/2000/svg"  viewBox="0 0 100 100" width="100px" height="100px"><path fill="#c7ede6" d="M87.215,56.71C88.35,54.555,89,52.105,89,49.5c0-6.621-4.159-12.257-10.001-14.478 C78.999,35.015,79,35.008,79,35c0-11.598-9.402-21-21-21c-9.784,0-17.981,6.701-20.313,15.757C36.211,29.272,34.638,29,33,29 c-7.692,0-14.023,5.793-14.89,13.252C12.906,43.353,9,47.969,9,53.5C9,59.851,14.149,65,20.5,65c0.177,0,0.352-0.012,0.526-0.022 C21.022,65.153,21,65.324,21,65.5C21,76.822,30.178,86,41.5,86c6.437,0,12.175-2.972,15.934-7.614C59.612,80.611,62.64,82,66,82 c4.65,0,8.674-2.65,10.666-6.518C77.718,75.817,78.837,76,80,76c6.075,0,11-4.925,11-11C91,61.689,89.53,58.727,87.215,56.71z"/><path fill="#fff" d="M85.405,44H75.5c-0.276,0-0.5-0.224-0.5-0.5s0.224-0.5,0.5-0.5h9.905c0.276,0,0.5,0.224,0.5,0.5 S85.682,44,85.405,44z"/><path fill="#fff" d="M88.5,44h-1c-0.276,0-0.5-0.224-0.5-0.5s0.224-0.5,0.5-0.5h1c0.276,0,0.5,0.224,0.5,0.5 S88.777,44,88.5,44z"/><path fill="#fff" d="M93.491,46H84.5c-0.276,0-0.5-0.224-0.5-0.5s0.224-0.5,0.5-0.5h8.991c0.276,0,0.5,0.224,0.5,0.5 S93.767,46,93.491,46z"/><path fill="#fff" d="M82.5,46h-1c-0.276,0-0.5-0.224-0.5-0.5s0.224-0.5,0.5-0.5h1c0.276,0,0.5,0.224,0.5,0.5 S82.777,46,82.5,46z"/><path fill="#fff" d="M79.5,46h-2c-0.276,0-0.5-0.224-0.5-0.5s0.224-0.5,0.5-0.5h2c0.276,0,0.5,0.224,0.5,0.5 S79.777,46,79.5,46z"/><path fill="#fff" d="M85.5,48h-2c-0.276,0-0.5-0.224-0.5-0.5s0.224-0.5,0.5-0.5h2c0.276,0,0.5,0.224,0.5,0.5 S85.776,48,85.5,48z"/><path fill="#fff" d="M88.5,39c-0.177,0-0.823,0-1,0c-0.276,0-0.5,0.224-0.5,0.5c0,0.276,0.224,0.5,0.5,0.5 c0.177,0,0.823,0,1,0c0.276,0,0.5-0.224,0.5-0.5C89,39.224,88.776,39,88.5,39z"/><path fill="#fff" d="M88.5,41c-0.177,0-4.823,0-5,0c-0.276,0-0.5,0.224-0.5,0.5c0,0.276,0.224,0.5,0.5,0.5 c0.177,0,4.823,0,5,0c0.276,0,0.5-0.224,0.5-0.5C89,41.224,88.776,41,88.5,41z"/><path fill="#fff" d="M93.5,43c-0.177,0-2.823,0-3,0c-0.276,0-0.5,0.224-0.5,0.5c0,0.276,0.224,0.5,0.5,0.5 c0.177,0,2.823,0,3,0c0.276,0,0.5-0.224,0.5-0.5C94,43.224,93.776,43,93.5,43z"/><g><path fill="#fff" d="M17.5,59h-10C7.224,59,7,58.776,7,58.5S7.224,58,7.5,58h10c0.276,0,0.5,0.224,0.5,0.5 S17.776,59,17.5,59z"/><path fill="#fff" d="M21.5,59h-2c-0.276,0-0.5-0.224-0.5-0.5s0.224-0.5,0.5-0.5h2c0.276,0,0.5,0.224,0.5,0.5 S21.776,59,21.5,59z"/><path fill="#fff" d="M26.5,61h-10c-0.276,0-0.5-0.224-0.5-0.5s0.224-0.5,0.5-0.5h10c0.276,0,0.5,0.224,0.5,0.5 S26.777,61,26.5,61z"/><path fill="#fff" d="M14.5,61h-1c-0.276,0-0.5-0.224-0.5-0.5s0.224-0.5,0.5-0.5h1c0.276,0,0.5,0.224,0.5,0.5 S14.776,61,14.5,61z"/><path fill="#fff" d="M11.47,61H9.5C9.224,61,9,60.776,9,60.5S9.224,60,9.5,60h1.97c0.276,0,0.5,0.224,0.5,0.5 S11.746,61,11.47,61z"/><path fill="#fff" d="M20.5,57h-5c-0.276,0-0.5-0.224-0.5-0.5s0.224-0.5,0.5-0.5h5c0.276,0,0.5,0.224,0.5,0.5 S20.777,57,20.5,57z"/><path fill="#fff" d="M17.5,63h-2c-0.276,0-0.5-0.224-0.5-0.5s0.224-0.5,0.5-0.5h2c0.276,0,0.5,0.224,0.5,0.5 S17.776,63,17.5,63z"/></g><g><path fill="#fdfcef" d="M41.625,31.5c0,0,3.64,0,6.125,0s4.5-2.015,4.5-4.5c0-2.333-1.782-4.229-4.055-4.455 c0.022-0.181,0.055-0.358,0.055-0.545c0-2.485-2.015-4.5-4.5-4.5c-1.438,0-2.703,0.686-3.527,1.736 C40.083,16.6,37.921,14.5,35.25,14.5c-2.761,0-5,2.239-5,5c0,0.446,0.077,0.87,0.187,1.282c-0.642-0.777-1.6-1.282-2.687-1.282 c-1.781,0-3.234,1.335-3.455,3.055c-0.181-0.022-0.358-0.055-0.545-0.055c-2.485,0-4.5,2.015-4.5,4.5s2.015,4.5,4.5,4.5 s9.5,0,9.5,0h5.375V32h3V31.5z"/><path fill="#472b29" d="M35.25,14c-3.033,0-5.5,2.467-5.5,5.5c0,0.016,0,0.031,0,0.047c-0.602-0.354-1.29-0.547-2-0.547 c-1.831,0-3.411,1.261-3.858,3.005C23.845,22.002,23.798,22,23.75,22c-2.757,0-5,2.243-5,5s2.243,5,5,5h14.875 c0.276,0,0.5-0.224,0.5-0.5s-0.224-0.5-0.5-0.5H23.75c-2.206,0-4-1.794-4-4s1.794-4,4-4c0.117,0,0.23,0.017,0.343,0.032 l0.141,0.019c0.021,0.003,0.041,0.004,0.062,0.004c0.246,0,0.462-0.185,0.495-0.437C24.982,21.125,26.254,20,27.75,20 c0.885,0,1.723,0.401,2.301,1.1c0.098,0.118,0.241,0.182,0.386,0.182c0.078,0,0.156-0.018,0.228-0.056 c0.209-0.107,0.314-0.346,0.254-0.573c-0.116-0.436-0.17-0.802-0.17-1.153c0-2.481,2.019-4.5,4.5-4.5 c2.381,0,4.347,1.872,4.474,4.263c0.011,0.208,0.15,0.387,0.349,0.45c0.05,0.016,0.101,0.024,0.152,0.024 c0.15,0,0.296-0.069,0.392-0.192C41.388,18.563,42.529,18,43.75,18c2.206,0,4,1.794,4,4c0,0.117-0.017,0.23-0.032,0.343 l-0.019,0.141c-0.016,0.134,0.022,0.268,0.106,0.373c0.084,0.105,0.207,0.172,0.34,0.185c2.055,0.205,3.604,1.906,3.604,3.958 c0,2.206-1.794,4-4,4h-6.125c-0.276,0-0.5,0.224-0.5,0.5s0.224,0.5,0.5,0.5h6.125c2.757,0,5-2.243,5-5 c0-2.397-1.689-4.413-4.003-4.877c0.002-0.041,0.003-0.082,0.003-0.123c0-2.757-2.243-5-5-5c-1.176,0-2.293,0.416-3.183,1.164 C39.969,15.76,37.805,14,35.25,14L35.25,14z"/><path fill="#472b29" d="M33.75,21c-1.403,0-2.609,0.999-2.913,2.341C30.47,23.119,30.051,23,29.625,23 c-1.202,0-2.198,0.897-2.353,2.068C27.069,25.022,26.876,25,26.687,25c-1.529,0-2.811,1.2-2.918,2.732 C23.76,27.87,23.864,27.99,24.001,28c0.006,0,0.012,0,0.018,0c0.13,0,0.24-0.101,0.249-0.232c0.089-1.271,1.151-2.268,2.419-2.268 c0.229,0,0.47,0.042,0.738,0.127c0.022,0.007,0.045,0.01,0.067,0.01c0.055,0,0.11-0.02,0.156-0.054 c0.064-0.047,0.102-0.129,0.102-0.209c0-1.034,0.841-1.875,1.875-1.875c0.447,0,0.885,0.168,1.231,0.473 c0.047,0.041,0.106,0.063,0.165,0.063c0.032,0,0.063-0.006,0.093-0.019c0.088-0.035,0.148-0.117,0.155-0.212 c0.102-1.292,1.191-2.305,2.479-2.305c0.208,0,0.425,0.034,0.682,0.107c0.023,0.007,0.047,0.01,0.07,0.01 c0.109,0,0.207-0.073,0.239-0.182c0.038-0.133-0.039-0.271-0.172-0.309C34.267,21.04,34.006,21,33.75,21L33.75,21z"/></g><g><path fill="#ee3e54" d="M45.965,78.3c-0.544,0-1.074-0.215-1.457-0.591l-3.951-3.875c-2.121-2.079-3.524-4.708-4.061-7.6 l-1.18-6.362c-0.841-9.101-1.06-17.15,0.475-28.943c0.352-2.708,1.947-5.1,4.267-6.401C43.173,22.782,46.424,21.7,53,21.7 c6.56,0,9.804,1.082,12.912,2.828c2.315,1.301,3.907,3.693,4.258,6.401c1.53,11.787,1.313,19.838,0.465,29.007l-1.168,6.298 c-0.536,2.893-1.938,5.522-4.053,7.601l-3.942,3.875c-0.388,0.381-0.904,0.59-1.453,0.59H45.965z"/><path fill="#472b29" d="M53,22.4c6.436,0,9.482,1.004,12.569,2.739c2.123,1.192,3.584,3.391,3.907,5.88 c1.519,11.698,1.306,19.696,0.468,28.789l-1.165,6.299c-0.509,2.751-1.842,5.25-3.855,7.229l-3.943,3.875 c-0.252,0.248-0.603,0.39-0.962,0.39H53h-7.036c-0.361,0-0.714-0.143-0.967-0.391l-3.951-3.875 c-2.017-1.979-3.353-4.478-3.863-7.229l-1.168-6.298c-0.84-9.093-1.053-17.09,0.468-28.788c0.324-2.489,1.788-4.688,3.915-5.88 C43.494,23.404,46.548,22.4,53,22.4 M53,21c-6.399,0-9.815,0.973-13.284,2.918c-2.567,1.439-4.245,4.044-4.619,6.921 C33.619,42.198,33.71,50.099,34.628,60l1.179,6.361c0.56,3.021,2.046,5.802,4.259,7.973l3.951,3.875 C44.534,78.715,45.234,79,45.964,79H53h7.019c0.729,0,1.428-0.285,1.943-0.791l3.943-3.875c2.209-2.171,3.691-4.952,4.25-7.973 L71.332,60c0.916-9.901,1.007-17.802-0.467-29.161c-0.373-2.876-2.048-5.482-4.61-6.921C62.792,21.973,59.386,21,53,21L53,21z"/><polygon fill="#472b29" points="37.25,57.438 41.875,70.25 44.5,72.5 61.5,72.5 64.062,70.375 68.562,56.75"/><path fill="#eab436" d="M69,43.191l1-11.49C68,28.83,65,25.957,59,25l-2,13.404h-4h-4.011L46.985,25 c-6.013,0.957-9.02,3.83-11.024,6.702l1.002,11.49l-2.004,8.617c3.007,9.574,7.015,8.617,7.015,16.277L44.98,70l1.002-1.915H53h7 L61,70l3-1.915c0-7.66,4-6.702,7-16.277L69,43.191z"/><path fill="#472b29" d="M44.98,70.5c-0.095,0-0.188-0.027-0.269-0.078l-3.007-1.915c-0.145-0.092-0.231-0.251-0.231-0.422 c0-3.992-1.108-5.514-2.644-7.621c-1.313-1.803-2.949-4.047-4.349-8.506c-0.027-0.085-0.03-0.176-0.011-0.263l1.987-8.54 l-0.995-11.41c-0.01-0.117,0.021-0.233,0.088-0.33c1.864-2.672,4.84-5.872,11.354-6.909c0.132-0.021,0.266,0.011,0.375,0.091 c0.107,0.079,0.179,0.198,0.198,0.329l1.941,12.978h7.149l1.937-12.978c0.02-0.132,0.091-0.251,0.198-0.33 c0.108-0.079,0.242-0.112,0.375-0.09c6.501,1.037,9.471,4.238,11.331,6.91c0.067,0.096,0.098,0.212,0.088,0.329l-0.993,11.411 l1.982,8.54c0.02,0.087,0.017,0.177-0.01,0.262c-1.397,4.459-3.029,6.703-4.34,8.506c-1.531,2.106-2.638,3.628-2.638,7.621 c0,0.171-0.087,0.33-0.231,0.421l-3,1.915c-0.118,0.075-0.263,0.098-0.397,0.062c-0.136-0.036-0.249-0.127-0.314-0.252 l-0.859-1.646H46.285l-0.861,1.647c-0.065,0.124-0.179,0.215-0.314,0.251C45.067,70.494,45.023,70.5,44.98,70.5z M42.472,67.81 l2.318,1.476l0.749-1.433c0.087-0.165,0.257-0.268,0.443-0.268H60c0.187,0,0.357,0.104,0.443,0.269l0.747,1.431l2.312-1.475 c0.052-4.116,1.28-5.807,2.827-7.934c1.32-1.816,2.815-3.873,4.153-8.087l-1.97-8.484c-0.012-0.051-0.016-0.104-0.011-0.156 l0.984-11.308c-1.705-2.409-4.399-5.224-10.067-6.261l-1.925,12.899c-0.036,0.245-0.246,0.426-0.494,0.426h-8.011 c-0.248,0-0.458-0.181-0.494-0.426l-1.93-12.899c-5.682,1.036-8.382,3.852-10.091,6.261l0.986,11.308 c0.005,0.052,0.001,0.105-0.011,0.157l-1.975,8.484c1.341,4.214,2.84,6.271,4.163,8.087C41.188,62.003,42.42,63.693,42.472,67.81z"/><polygon fill="#472b29" points="65.416,73.277 64.584,72.723 66.536,69.795 70.515,53.879 71.485,54.121 67.416,70.277"/><path fill="#472b29" d="M60.319,68.915l-0.473-0.164c1.188-3.433,2.861-5.399,4.798-7.676 c1.168-1.373,2.376-2.792,3.646-4.714l0.418,0.276c-1.288,1.947-2.561,3.443-3.684,4.762 C63.121,63.638,61.477,65.571,60.319,68.915z"/><path fill="#472b29" d="M68.5,56.75c-0.048,0-0.096-0.014-0.139-0.042l-3-2c-0.069-0.046-0.111-0.125-0.111-0.208v-2 c0-0.138,0.112-0.25,0.25-0.25s0.25,0.112,0.25,0.25v1.866l2.889,1.926c0.115,0.077,0.146,0.232,0.069,0.347 C68.66,56.711,68.58,56.75,68.5,56.75z"/><path fill="#472b29" d="M66.542,46.833c-0.01,0-0.021-0.001-0.031-0.002c-0.138-0.017-0.234-0.143-0.217-0.28l0.345-2.712 c0.017-0.136,0.129-0.235,0.279-0.217c0.138,0.017,0.234,0.143,0.217,0.28l-0.345,2.712 C66.774,46.741,66.666,46.833,66.542,46.833z"/><path fill="#472b29" d="M67.106,42.398c-0.01,0-0.021-0.001-0.031-0.002c-0.138-0.017-0.234-0.143-0.217-0.28l0.378-2.972 l-4.703-4.619c-0.048-0.047-0.075-0.111-0.075-0.178v-1.722c0-0.138,0.112-0.25,0.25-0.25s0.25,0.112,0.25,0.25v1.617l4.717,4.633 c0.056,0.055,0.083,0.133,0.073,0.21l-0.394,3.095C67.339,42.306,67.23,42.398,67.106,42.398z"/><path fill="#472b29" d="M62.708,31c-0.138,0-0.25-0.112-0.25-0.25v-4.875c0-0.138,0.112-0.25,0.25-0.25 s0.25,0.112,0.25,0.25v4.875C62.958,30.888,62.846,31,62.708,31z"/><path fill="#472b29" d="M56.25,46.375c-0.01,0-0.021-0.001-0.031-0.002c-0.137-0.017-0.234-0.142-0.217-0.279l1-8 c0.017-0.136,0.134-0.235,0.279-0.217c0.137,0.017,0.234,0.142,0.217,0.279l-1,8C56.482,46.282,56.375,46.375,56.25,46.375z"/><path fill="#472b29" d="M39.667,47.458c-0.124,0-0.231-0.092-0.248-0.219l-0.959-7.53c-0.01-0.077,0.018-0.155,0.073-0.21 l0.91-0.894c0.096-0.096,0.256-0.096,0.354,0.003c0.097,0.098,0.095,0.257-0.004,0.354l-0.821,0.807l0.943,7.407 c0.018,0.137-0.079,0.262-0.217,0.28C39.688,47.458,39.677,47.458,39.667,47.458z"/><path fill="#472b29" d="M40.942,37.733c-0.064,0-0.13-0.025-0.179-0.075c-0.097-0.098-0.095-0.257,0.004-0.354l2.482-2.438 v-4.283c0-0.138,0.112-0.25,0.25-0.25s0.25,0.112,0.25,0.25v4.388c0,0.067-0.027,0.131-0.075,0.178l-2.558,2.512 C41.069,37.709,41.006,37.733,40.942,37.733z"/><path fill="#472b29" d="M43.5,28.958c-0.138,0-0.25-0.112-0.25-0.25V26.5c0-0.138,0.112-0.25,0.25-0.25 s0.25,0.112,0.25,0.25v2.208C43.75,28.846,43.638,28.958,43.5,28.958z"/><path fill="#472b29" d="M49.958,47c-0.125,0-0.232-0.093-0.248-0.219l-0.271-2.164c-0.018-0.137,0.08-0.262,0.217-0.279 c0.146-0.018,0.262,0.081,0.279,0.217l0.271,2.164c0.018,0.137-0.08,0.262-0.217,0.279C49.979,46.999,49.968,47,49.958,47z"/><path fill="#472b29" d="M49.468,43.077c-0.125,0-0.232-0.093-0.248-0.219l-0.51-4.077c-0.018-0.137,0.08-0.262,0.217-0.279 c0.148-0.017,0.263,0.081,0.279,0.217l0.51,4.077c0.018,0.137-0.08,0.262-0.217,0.279C49.488,43.076,49.478,43.077,49.468,43.077z"/><path fill="#472b29" d="M55.111,33.5c-0.027,0-0.054-0.002-0.081-0.006c-0.272-0.044-0.458-0.301-0.413-0.573L55.413,28 h-2.415c-0.276,0-0.5-0.224-0.5-0.5s0.224-0.5,0.5-0.5H56c0.146,0,0.286,0.064,0.381,0.176c0.095,0.112,0.136,0.259,0.112,0.404 l-0.89,5.5C55.564,33.325,55.352,33.5,55.111,33.5z"/><path fill="#472b29" d="M64,62.375c-0.028,0-0.057-0.005-0.085-0.015l-1.463-0.528c-0.13-0.047-0.197-0.19-0.15-0.32 s0.19-0.197,0.32-0.15l1.463,0.528c0.13,0.047,0.197,0.19,0.15,0.32C64.198,62.312,64.103,62.375,64,62.375z"/><path fill="#472b29" d="M60.95,61.273c-0.028,0-0.057-0.005-0.085-0.015l-1.45-0.523c-0.046-0.017-0.086-0.046-0.115-0.085 l-3-4c-0.032-0.043-0.05-0.096-0.05-0.15v-7c0-0.138,0.112-0.25,0.25-0.25s0.25,0.112,0.25,0.25v6.917l2.905,3.874l1.38,0.498 c0.13,0.047,0.197,0.19,0.15,0.32C61.148,61.21,61.053,61.273,60.95,61.273z"/><polygon fill="#eab436" points="61.01,72.571 59.017,70 53,70 46.958,70 44.958,72.571 41.958,70 41.958,73.429 43.958,76 47.958,74.286 49.958,74.286 50.958,73.429 53,73.429 55.031,73.429 56.028,74.286 58.021,74.286 62.007,76 64,73.429 64,70"/><path fill="#472b29" d="M43.958,76.5c-0.15,0-0.298-0.068-0.395-0.193l-2-2.572c-0.068-0.088-0.105-0.196-0.105-0.307V70 c0-0.195,0.113-0.373,0.291-0.454c0.176-0.082,0.386-0.052,0.534,0.075l2.603,2.23l1.678-2.157 c0.095-0.122,0.24-0.193,0.395-0.193h12.06c0.154,0,0.301,0.072,0.396,0.194l1.671,2.156l2.59-2.229 c0.148-0.127,0.354-0.157,0.535-0.075C64.386,69.627,64.5,69.805,64.5,70v3.428c0,0.111-0.037,0.219-0.104,0.306l-1.993,2.572 c-0.141,0.18-0.386,0.243-0.593,0.153l-3.892-1.674h-1.891c-0.12,0-0.235-0.043-0.326-0.121l-0.855-0.736h-3.703l-0.859,0.737 c-0.091,0.078-0.206,0.12-0.325,0.12h-1.897l-3.905,1.674C44.091,76.487,44.024,76.5,43.958,76.5z M42.458,73.257l1.658,2.132 l3.645-1.562c0.063-0.027,0.13-0.041,0.197-0.041h1.815l0.859-0.737c0.091-0.078,0.206-0.12,0.325-0.12h4.073 c0.12,0,0.235,0.043,0.326,0.121l0.855,0.736h1.808c0.068,0,0.135,0.014,0.197,0.041l3.631,1.561l1.651-2.13V71.09l-2.163,1.861 c-0.104,0.089-0.239,0.134-0.376,0.118c-0.137-0.014-0.262-0.083-0.346-0.191L58.772,70.5h-11.57l-1.85,2.378 c-0.084,0.108-0.208,0.177-0.345,0.191c-0.135,0.015-0.271-0.029-0.375-0.118l-2.175-1.864V73.257z"/><polygon fill="#472b29" points="40.542,73.277 38.473,70.121 34.473,54.121 35.443,53.879 39.422,69.795 41.374,72.723"/><path fill="#472b29" d="M45.639,68.915c-1.157-3.344-2.802-5.277-4.706-7.515c-1.123-1.32-2.396-2.815-3.684-4.762 l0.418-0.276c1.271,1.922,2.479,3.341,3.646,4.714c1.937,2.276,3.609,4.242,4.798,7.676L45.639,68.915z"/><path fill="#472b29" d="M37.458,56.75c-0.08,0-0.16-0.039-0.208-0.111c-0.076-0.115-0.046-0.27,0.069-0.347l2.889-1.926 V52.5c0-0.138,0.112-0.25,0.25-0.25s0.25,0.112,0.25,0.25v2c0,0.083-0.042,0.162-0.111,0.208l-3,2 C37.554,56.736,37.506,56.75,37.458,56.75z"/><path fill="#472b29" d="M50.854,33.5c-0.24,0-0.452-0.174-0.492-0.419l-0.897-5.5c-0.024-0.145,0.018-0.293,0.112-0.404 C49.672,27.064,49.812,27,49.958,27h3.04c0.276,0,0.5,0.224,0.5,0.5s-0.224,0.5-0.5,0.5h-2.452l0.803,4.919 c0.045,0.273-0.14,0.53-0.413,0.574C50.909,33.498,50.882,33.5,50.854,33.5z"/><path fill="#472b29" d="M55.5,25h-4.542c-0.276,0-0.5-0.224-0.5-0.5s0.224-0.5,0.5-0.5H55.5c0.276,0,0.5,0.224,0.5,0.5 S55.776,25,55.5,25z"/><path fill="#472b29" d="M42,62.375c-0.103,0-0.198-0.063-0.235-0.165c-0.047-0.13,0.021-0.273,0.15-0.32l4.43-1.6 l1.255-1.674c0.083-0.111,0.241-0.132,0.351-0.05c0.11,0.083,0.133,0.24,0.05,0.35l-1.3,1.733 c-0.029,0.039-0.069,0.069-0.115,0.085l-4.5,1.625C42.057,62.37,42.028,62.375,42,62.375z"/><path fill="#472b29" d="M48.78,57.71c-0.053,0-0.105-0.016-0.15-0.05c-0.11-0.083-0.133-0.24-0.05-0.35l0.67-0.893V49.5 c0-0.138,0.112-0.25,0.25-0.25s0.25,0.112,0.25,0.25v7c0,0.054-0.018,0.107-0.05,0.15l-0.72,0.96 C48.932,57.676,48.856,57.71,48.78,57.71z"/><path fill="#836f61" d="M56,49l1,4h6.921c0.7,0,1.382-0.227,1.943-0.647L69,50l-1-4C68,46,64,49,56,49z"/><path fill="#472b29" d="M63.921,53.25H57c-0.114,0-0.215-0.078-0.242-0.189l-1-4c-0.019-0.075-0.002-0.154,0.045-0.214 c0.048-0.061,0.12-0.096,0.197-0.096c7.826,0,11.811-2.92,11.85-2.95c0.067-0.05,0.155-0.064,0.234-0.036 c0.078,0.028,0.139,0.094,0.158,0.175l1,4c0.024,0.097-0.012,0.2-0.092,0.26l-3.137,2.353C65.413,53.002,64.67,53.25,63.921,53.25 z M57.195,52.75h6.726c0.642,0,1.278-0.212,1.792-0.597l3.004-2.253l-0.872-3.492c-1.065,0.682-4.873,2.775-11.525,2.841 L57.195,52.75z"/><g><path fill="#edf7f5" d="M56.75,50.167c3.553-0.186,7.936-1.352,10.333-2.542l0.667,2L65,51c-2.308,0.545-5.05,0.834-8,1 L56.75,50.167z"/></g><g><path fill="#836f61" d="M49.958,49l-1,4h-6.921c-0.7,0-1.382-0.227-1.942-0.647L36.958,50l1-4 C37.958,46,41.958,49,49.958,49z"/><path fill="#472b29" d="M48.958,53.25h-6.921c-0.749,0-1.492-0.248-2.093-0.698L36.808,50.2 c-0.08-0.06-0.116-0.163-0.092-0.26l1-4c0.02-0.081,0.08-0.147,0.158-0.175c0.079-0.028,0.168-0.015,0.233,0.035 c0.04,0.03,4.04,2.95,11.851,2.95c0.077,0,0.149,0.035,0.197,0.096c0.047,0.061,0.063,0.14,0.045,0.214l-1,4 C49.173,53.172,49.072,53.25,48.958,53.25z M37.241,49.9l3.004,2.253c0.514,0.385,1.15,0.597,1.792,0.597h6.726l0.876-3.501 c-6.652-0.065-10.46-2.159-11.525-2.841L37.241,49.9z"/></g><g><path fill="#edf7f5" d="M49.208,50.167c-3.553-0.186-7.936-1.352-10.333-2.542l-0.667,2L40.958,51 c2.308,0.545,5.05,0.834,8,1L49.208,50.167z"/></g></g><g><path fill="#fdfcef" d="M84.375,69.5c0,0,1.567,0,3.5,0s3.5-1.567,3.5-3.5c0-1.781-1.335-3.234-3.055-3.455 c0.028-0.179,0.055-0.358,0.055-0.545c0-1.933-1.567-3.5-3.5-3.5c-1.032,0-1.95,0.455-2.59,1.165 c-0.384-1.808-1.987-3.165-3.91-3.165c-2.209,0-4,1.791-4,4c0,0.191,0.03,0.374,0.056,0.558c-0.428-0.344-0.965-0.558-1.556-0.558 c-1.228,0-2.245,0.887-2.455,2.055c-0.179-0.028-0.358-0.055-0.545-0.055c-1.933,0-3.5,1.567-3.5,3.5s1.567,3.5,3.5,3.5 s7.5,0,7.5,0V70h7V69.5z"/><path fill="#472b29" d="M86.125,65c-0.138,0-0.25-0.112-0.25-0.25c0-1.223,0.995-2.218,2.218-2.218 c0.034,0.009,0.737-0.001,1.244,0.136c0.133,0.036,0.212,0.173,0.176,0.306c-0.036,0.134-0.173,0.213-0.306,0.176 c-0.444-0.12-1.1-0.12-1.113-0.118c-0.948,0-1.719,0.771-1.719,1.718C86.375,64.888,86.263,65,86.125,65z"/><circle cx="79.375" cy="69.5" r=".5" fill="#472b29"/><path fill="#472b29" d="M87.875,70h-3.5c-0.276,0-0.5-0.224-0.5-0.5s0.224-0.5,0.5-0.5h3.5c1.654,0,3-1.346,3-3 c0-1.496-1.125-2.768-2.618-2.959c-0.134-0.018-0.255-0.088-0.336-0.196s-0.115-0.244-0.094-0.377 c0.024-0.153,0.049-0.308,0.049-0.468c0-1.654-1.346-3-3-3c-0.85,0-1.638,0.355-2.219,1c-0.125,0.139-0.321,0.198-0.5,0.148 c-0.182-0.049-0.321-0.195-0.36-0.379C81.455,58.165,80.016,57,78.375,57c-1.93,0-3.5,1.57-3.5,3.5 c0,0.143,0.021,0.28,0.041,0.418c0.029,0.203-0.063,0.438-0.242,0.54c-0.179,0.102-0.396,0.118-0.556-0.01 C73.753,61.155,73.324,61,72.875,61c-0.966,0-1.792,0.691-1.963,1.644c-0.048,0.267-0.296,0.446-0.569,0.405 C70.189,63.025,70.035,63,69.875,63c-1.654,0-3,1.346-3,3s1.346,3,3,3h7.5c0.276,0,0.5,0.224,0.5,0.5s-0.224,0.5-0.5,0.5h-7.5 c-2.206,0-4-1.794-4-4s1.794-4,4-4c0.059,0,0.116,0.002,0.174,0.006C70.463,60.82,71.586,60,72.875,60 c0.349,0,0.689,0.061,1.011,0.18c0.165-2.333,2.115-4.18,4.489-4.18c1.831,0,3.466,1.127,4.153,2.774 C83.208,58.276,84.03,58,84.875,58c2.206,0,4,1.794,4,4c0,0.048-0.001,0.095-0.004,0.142c1.743,0.448,3.004,2.027,3.004,3.858 C91.875,68.206,90.081,70,87.875,70z"/><path fill="#472b29" d="M82.375,69c-0.159,0-0.841,0-1,0c-0.276,0-0.5,0.224-0.5,0.5c0,0.276,0.224,0.5,0.5,0.5 c0.159,0,0.841,0,1,0c0.276,0,0.5-0.224,0.5-0.5C82.875,69.224,82.651,69,82.375,69z"/></g></svg>